<!-- Generator: Adobe Illustrator 20.1.0, SVG Export Plug-In  -->
<svg version="1.1"
     xmlns="http://www.w3.org/2000/svg" xmlns:xlink="http://www.w3.org/1999/xlink" xmlns:a="http://ns.adobe.com/AdobeSVGViewerExtensions/3.0/"
     x="0px" y="0px" width="157px" height="286.6px" viewBox="0 0 157 286.6" style="enable-background:new 0 0 157 286.6;"
     xml:space="preserve">
<style type="text/css">
    .st0{fill:#fbce41;}
    .st1{fill:#d2aa41;}
    .st2{fill:#FFFFFF;}
    .st3{fill:none;}
</style>
<defs>
</defs>
<rect x="-12" y="148.7" transform="matrix(0.1803 -0.9836 0.9836 0.1803 -53.8688 244.1198)" class="st0" width="263" height="11.3"/>
<path class="st1" d="M102.8,286.6l-14.5-2.7l48-261.9l14.5,2.7L102.8,286.6L102.8,286.6z M92.2,281.3l7.9,1.4l46.8-255.4l-7.9-1.4
    L92.2,281.3L92.2,281.3z"/>
<rect x="-12" y="136.2" transform="matrix(0.1803 -0.9836 0.9836 0.1803 -50.0635 223.5317)" class="st0" width="242.1" height="11.3"/>
<path class="st1" d="M94.3,263.8l-14.5-2.7L124,19.7l14.5,2.7L94.3,263.8L94.3,263.8z M83.7,258.5l7.9,1.4l43-234.9l-7.9-1.4
    L83.7,258.5L83.7,258.5z"/>
<rect x="-12.9" y="124.5" transform="matrix(0.1803 -0.9836 0.9836 0.1803 -47.1676 203.6277)" class="st0" width="222.9" height="11.3"/>
<path class="st1" d="M85.4,242.8l-14.5-2.7l40.9-222.6l14.5,2.7L85.4,242.8L85.4,242.8z M74.7,237.4l7.9,1.4l39.6-216l-7.9-1.4
    L74.7,237.4L74.7,237.4z"/>
<rect x="-14.6" y="113.4" transform="matrix(0.1803 -0.9836 0.9836 0.1803 -45.0843 184.0079)" class="st0" width="205" height="11.3"/>
<path class="st1" d="M76.4,222.8l-14.5-2.7L99.4,15.2L114,18L76.4,222.8L76.4,222.8z M65.8,217.5l7.9,1.4l36.4-198.3l-7.9-1.4
    L65.8,217.5L65.8,217.5z"/>
<rect x="-16.2" y="102.8" transform="matrix(0.1803 -0.9836 0.9836 0.1803 -43.02 165.1853)" class="st0" width="187.7" height="11.3"/>
<path class="st1" d="M67.7,203.6l-14.5-2.7L87.6,13l14.5,2.7L67.7,203.6L67.7,203.6z M57.1,198.3l7.9,1.4L98.3,18.4l-7.9-1.4
    L57.1,198.3L57.1,198.3z"/>
<rect x="-19.6" y="93.5" transform="matrix(0.1803 -0.9836 0.9836 0.1803 -42.5663 147.2681)" class="st0" width="173.4" height="11.3"/>
<path class="st1" d="M58.4,187.4L44,184.7L75.8,10.8l14.5,2.7L58.4,187.4L58.4,187.4z M47.9,182l7.9,1.4L86.4,16.3l-7.9-1.4
    L47.9,182L47.9,182z"/>
<rect x="-23.1" y="84.3" transform="matrix(0.1803 -0.9836 0.9836 0.1803 -42.2575 129.1302)" class="st0" width="159" height="11.3"/>
<path class="st1" d="M49,171l-14.4-2.6L63.8,8.7l14.5,2.7L49,171L49,171z M38.4,165.7l7.9,1.4L74.3,14l-7.9-1.4L38.4,165.7
    L38.4,165.7z"/>
<rect x="-26.3" y="74.6" transform="matrix(0.1803 -0.9836 0.9836 0.1803 -41.4845 110.662)" class="st0" width="143.9" height="11.3"/>
<path class="st1" d="M39.6,154l-14.4-2.6L51.8,6.6l14.5,2.6L39.6,154L39.6,154z M29.1,148.7l7.9,1.4L62.3,11.8l-7.9-1.4L29.1,148.7
    L29.1,148.7z"/>
<rect x="-29.1" y="64.6" transform="matrix(0.1803 -0.9836 0.9836 0.1803 -40.5004 91.811)" class="st0" width="127.9" height="11.3"/>
<path class="st1" d="M30.2,136l-14.4-2.6L39.5,4.3l14.4,2.6L30.2,136L30.2,136z M19.7,130.7l7.9,1.4L50,9.6l-7.9-1.4L19.7,130.7
    L19.7,130.7z"/>
<rect x="-28.8" y="52" transform="matrix(0.1803 -0.9836 0.9836 0.1803 -36.4745 71.6129)" class="st0" width="107" height="11.3"/>
<path class="st1" d="M22.1,113.3l-14.5-2.7L27.4,2L42,4.7L22.1,113.3L22.1,113.3z M11.4,107.9l7.9,1.4L38,7.4l-7.9-1.4L11.4,107.9
    L11.4,107.9z"/>
<rect x="-28" y="39.9" transform="matrix(0.1803 -0.9836 0.9836 0.1803 -32.2346 52.4585)" class="st0" width="86.7" height="11.3"/>
<path class="st1" d="M14.4,91.2L0,88.5L16.2,0l14.5,2.7L14.4,91.2L14.4,91.2z M3.9,85.9l7.9,1.4l15.1-82L19,3.9L3.9,85.9L3.9,85.9z"
    />
<polygon class="st2" points="17.5,130.8 19.6,119 129.1,139.8 127,151.6 "/>
<path class="st1" d="M128.2,153.3L15.7,131.9l2.7-14.8l112.6,21.4L128.2,153.3L128.2,153.3z M19.2,129.4l106.5,20.2l1.5-8.6
    L20.7,120.8L19.2,129.4L19.2,129.4z"/>
<polygon class="st2" points="64.3,218.5 66.4,206.4 115.5,215.7 113.4,227.8 "/>
<path class="st1" d="M114.6,229.7l-52.2-9.9l2.7-15.3l52.2,9.8L114.6,229.7L114.6,229.7z M66.1,217.2l46,8.7l1.6-8.8l-46-8.7
    L66.1,217.2L66.1,217.2z"/>
<rect x="74.2" y="-41.8" transform="matrix(0.1803 -0.9836 0.9836 0.1803 32.8698 106.3217)" class="st2" width="12" height="150.4"/>
<path class="st1" d="M154.2,54.7L3.4,27l2.8-14.9L157,39.8L154.2,54.7L154.2,54.7z M6.9,24.4l145,26.6l1.6-8.6L8.4,15.8L6.9,24.4
    L6.9,24.4z"/>
<line class="st3" x1="7.4" y1="14" x2="16.6" y2="27.3"/>
<polygon class="st1" points="16,27.8 6.7,14.4 8.1,13.5 17.3,26.9 "/>
<line class="st3" x1="18.7" y1="16.1" x2="5.4" y2="25.3"/>
<polygon class="st1" points="5.7,25.9 4.9,24.6 18.3,15.4 19.1,16.6 "/>
<line class="st3" x1="18.7" y1="16.1" x2="28" y2="29.5"/>
<polygon class="st1" points="27.2,29.8 18,16.5 19.3,15.6 28.7,29 "/>
<line class="st3" x1="30" y1="18.2" x2="16.6" y2="27.3"/>
<polygon class="st1" points="17,28 16.1,26.7 29.5,17.4 30.5,18.8 "/>
<line class="st3" x1="30" y1="18.2" x2="39.2" y2="31.5"/>
<polygon class="st1" points="38.7,32 29.3,18.6 30.7,17.7 39.9,31 "/>
<line class="st3" x1="41.3" y1="20.2" x2="28" y2="29.5"/>
<polygon class="st1" points="28.5,30 27.5,28.8 40.9,19.6 41.9,20.9 "/>
<line class="st3" x1="41.3" y1="20.2" x2="50.5" y2="33.6"/>
<polygon class="st1" points="49.9,34 40.7,20.6 42,19.7 51.3,33.1 "/>
<line class="st3" x1="52.6" y1="22.3" x2="39.2" y2="31.5"/>
<polygon class="st1" points="39.7,32.1 38.9,30.8 52.2,21.6 53.1,22.9 "/>
<line class="st3" x1="52.6" y1="22.3" x2="62" y2="35.7"/>
<polygon class="st1" points="61.2,36.1 52,22.7 53.3,21.9 62.5,35.1 "/>
<line class="st3" x1="64" y1="24.4" x2="50.5" y2="33.6"/>
<polygon class="st1" points="51,34.2 50.1,32.9 63.5,23.7 64.4,25 "/>
<line class="st3" x1="64" y1="24.4" x2="73.2" y2="37.7"/>
<polygon class="st1" points="72.6,38.1 63.3,24.7 64.7,23.9 73.8,37.3 "/>
<line class="st3" x1="75.3" y1="26.5" x2="62" y2="35.7"/>
<polygon class="st1" points="62.4,36.3 61.5,35 74.8,25.7 75.7,27 "/>
<line class="st3" x1="75.3" y1="26.5" x2="84.5" y2="39.9"/>
<polygon class="st1" points="83.8,40.2 74.6,26.9 75.9,26 85.2,39.3 "/>
<line class="st3" x1="86.6" y1="28.5" x2="73.2" y2="37.7"/>
<polygon class="st1" points="73.6,38.3 72.8,37.1 86.1,27.8 87,29.2 "/>
<line class="st3" x1="86.6" y1="28.5" x2="95.9" y2="41.9"/>
<polygon class="st1" points="95.1,42.3 85.9,28.9 87.2,28 96.5,41.4 "/>
<line class="st3" x1="97.9" y1="30.6" x2="84.5" y2="39.9"/>
<polygon class="st1" points="85,40.4 84,39.1 97.4,29.9 98.4,31.2 "/>
<line class="st3" x1="97.9" y1="30.6" x2="107.1" y2="44"/>
<polygon class="st1" points="106.5,44.4 97.2,31 98.5,30.1 107.8,43.5 "/>
<line class="st3" x1="109.1" y1="32.6" x2="95.9" y2="41.9"/>
<polygon class="st1" points="96.3,42.6 95.4,41.2 108.8,32 109.7,33.3 "/>
<line class="st3" x1="109.1" y1="32.6" x2="118.4" y2="46"/>
<polygon class="st1" points="117.8,46.4 108.6,33.1 109.9,32.2 119.1,45.6 "/>
<line class="st3" x1="120.5" y1="34.8" x2="107.1" y2="44"/>
<polygon class="st1" points="107.6,44.6 106.7,43.2 120.1,34.1 121,35.3 "/>
<line class="st3" x1="120.5" y1="34.8" x2="129.7" y2="48.2"/>
<polygon class="st1" points="129.1,48.5 119.9,35.2 121.2,34.3 130.4,47.7 "/>
<line class="st3" x1="131.8" y1="36.8" x2="118.4" y2="46"/>
<polygon class="st1" points="119,46.7 118,45.4 131.4,36.1 132.2,37.5 "/>
<line class="st3" x1="131.8" y1="36.8" x2="141.1" y2="50.2"/>
<polygon class="st1" points="140.4,50.6 131.2,37.3 132.5,36.3 141.7,49.7 "/>
<line class="st3" x1="143.1" y1="38.9" x2="129.7" y2="48.2"/>
<polygon class="st1" points="130.2,48.7 129.4,47.4 142.6,38.2 143.6,39.5 "/>
<line class="st3" x1="143.1" y1="38.9" x2="152.4" y2="52.3"/>
<polygon class="st1" points="151.7,52.7 142.5,39.3 143.8,38.4 153,51.8 "/>
<line class="st3" x1="154.5" y1="40.9" x2="141.1" y2="50.2"/>
<polygon class="st1" points="141.5,50.8 140.6,49.5 154,40.3 154.9,41.6 "/>
</svg>
