<!-- Generator: Adobe Illustrator 20.1.0, SVG Export Plug-In  -->
<svg version="1.1"
	 xmlns="http://www.w3.org/2000/svg" xmlns:xlink="http://www.w3.org/1999/xlink" xmlns:a="http://ns.adobe.com/AdobeSVGViewerExtensions/3.0/"
	 x="0px" y="0px" width="229.5px" height="320.1px" viewBox="0 0 229.5 320.1" style="enable-background:new 0 0 229.5 320.1;"
	 xml:space="preserve">
<style type="text/css">
	.st0{fill:#d2aa41;}
	.st1{fill:#fbce41;}
	.st2{fill:#fff;}
	.st3{fill:#fff;}
	.st4{fill:none;}
</style>
<defs>
</defs>
<g>
	<g>
		<path class="st0" d="M130.1,253.8l-6.6,1c-0.3,0.1-0.7,0-1-0.2c-0.3-0.2-0.5-0.5-0.5-0.9L100.3,68c-0.1-0.7,0.4-1.3,1.1-1.4
			l4.6-0.7c0.7-0.1,1.4,0.4,1.5,1.1c0.1,0.7-0.4,1.4-1.1,1.5L103,69l21.3,183.1l5.3-0.8c0.7-0.1,1.4,0.4,1.5,1.1
			C131.4,253,130.8,253.7,130.1,253.8L130.1,253.8z"/>
	</g>
	<g>
		<path class="st0" d="M161.7,253.3l-6.1,0.9c-0.7,0.1-1.4-0.4-1.5-1.1c-0.1-0.7,0.4-1.4,1.1-1.5l4.8-0.7L126.7,71l-3.4,0.5
			c-0.7,0.1-1.4-0.4-1.5-1.1c-0.1-0.7,0.4-1.4,1.1-1.5l4.6-0.7c0.7-0.1,1.3,0.4,1.5,1l33.7,182.5c0.1,0.3,0,0.7-0.2,1
			C162.3,253.1,162,253.2,161.7,253.3L161.7,253.3z"/>
	</g>
	<g>
		<path class="st1" d="M211.2,122.2c-1.2,9.2-8.4,12.7-8.4,12.7l0,0c-29,14-31.2,51.3-27.8,71l7.2,45.2c2,15.5,7.6,35.6-2.6,38.7
			c-0.7,0.2-1.4,0.4-2.1,0.5c-7.6,1.2-14.8-4.1-15.9-11.7L119.9,53.2l0,0c-0.7-4.1-1.4-8-2.2-11.7c-4.6-26.6-12.9-33-12.9-33l0,0
			c-4-4.2-8.6-6.6-13.7-7C78.4,0.6,67.9,11.7,66.4,13.4c-9.9,10.5-25.9,10.7-26,10.7v5.2v5.2c0.9,0,20.6-0.2,33.7-14.1l0.2-0.2
			c2-2.3,9.5-9,15.9-8.4c3.4,0.2,6.3,2.3,9.1,6.4c1.2,2.9,2,8.5,2.9,13.4c0,0,23.4,207.8,31.4,251c3.5,23,25.2,38.9,48.2,35.4
			c7.5-1.2,14.1-4.2,19.7-8.6l0,0c0.1-0.1,0.2-0.2,0.3-0.3c5.9-4.7,10.4-10.9,13-18c6.9-16.8,4-34.3,4-34.3l-8.7-56.7
			c0,0-3.1-15.5,3.7-23.5c8.3-7,14.5,1.1,14.5,1.1L211.2,122.2z"/>
		<path class="st0" d="M182,319.5c-23.7,3.7-46-12.7-49.7-36.5c-8-42.6-30.9-247.1-31.4-251.1c-0.2-0.9-0.3-1.9-0.5-2.8
			c-0.7-3.9-1.3-7.9-2.3-10.2c-2.5-3.7-5.1-5.5-8-5.8c-0.6-0.1-1.3,0-2,0.1c-5.5,0.9-11.2,6.2-12.8,8l-0.2,0.2
			C66.4,30.7,55,34.1,47,35.3c-3.7,0.5-6.2,0.5-6.6,0.5s-0.7-0.2-0.9-0.4c-0.2-0.2-0.4-0.5-0.4-0.9V24c0-0.7,0.6-1.3,1.3-1.3
			c0,0,1.8,0,4.5-0.5c4.9-0.8,14.1-3,20.5-9.8C67,10.7,75.3,1.9,86.1,0.3C87.8,0,89.4,0,91.1,0c5.5,0.4,10.4,2.9,14.5,7.3
			c0.9,0.8,8.9,8,13.4,33.8c0.7,3.5,1.4,7.3,2.2,11.6v0.1l41.6,225.4c1.1,7,7.5,11.7,14.5,10.6c0.5-0.1,1.2-0.2,1.9-0.5
			c7.3-2.2,5.1-15.7,3-28.7c-0.5-2.8-0.9-5.8-1.3-8.5l-7.1-45.2c-2.1-12.3-1.4-26.6,1.8-38.2c4.5-16.1,13.7-27.9,26.7-34.2
			c0.3-0.2,6.6-3.4,7.7-11.7c0.1-0.6,0.5-1.1,1.2-1.2c0.6-0.1,1.2,0.3,1.3,0.9l17.1,55.8c0.2,0.6-0.1,1.2-0.6,1.6s-1.2,0.2-1.6-0.4
			c0,0-3.2-4.1-7.7-3.4c-1.6,0.2-3.3,1.1-4.8,2.4c-6.2,7.4-3.4,22.1-3.4,22.3l8.7,56.8c0.2,0.7,2.9,18.1-4.1,35
			c-2.7,7.2-7.4,13.6-13.4,18.5l-0.3,0.3c-0.1,0-0.1,0.1-0.2,0.1C196.3,315.4,189.3,318.4,182,319.5L182,319.5z M87.7,10.7
			c0.9-0.2,1.8-0.2,2.6-0.1c3.7,0.3,7,2.6,10,7c0.1,0.1,0.1,0.2,0.2,0.2c1,2.5,1.8,6.7,2.5,10.9c0.2,0.9,0.3,2,0.5,2.9v0.1
			c0.2,2.1,23.4,208.2,31.4,250.9c3.4,22.3,24.4,37.7,46.7,34.3c7-1.1,13.6-3.9,19.1-8.3l0.1-0.1l0.2-0.2
			c5.7-4.6,10.1-10.6,12.7-17.4c6.6-16.2,3.9-33.4,3.9-33.7l-8.7-56.7c-0.2-0.6-3.1-16.2,4.1-24.5c0.1-0.1,0.1-0.1,0.2-0.2
			c2-1.7,4.1-2.7,6.2-3c2.7-0.4,4.8,0.3,6.6,1.3l-14.5-47.1c-2.5,6.3-7.7,8.9-8,9.1c-28.5,13.7-30.5,50.2-27.1,69.6l7.2,45.2
			c0.4,2.7,0.9,5.6,1.3,8.4c2.3,14.2,4.7,28.8-4.8,31.6c-0.8,0.2-1.6,0.5-2.3,0.5c-8.3,1.2-16.1-4.5-17.4-12.7L118.6,53.5
			c0-0.1,0-0.1,0-0.2c-0.8-4.3-1.5-8.1-2.2-11.6C112.2,17,104.7,10,104,9.5c-0.1-0.1-0.2-0.1-0.2-0.2c-3.7-4-8-6.2-12.9-6.6
			c-1.5-0.1-3-0.1-4.5,0.2c-10.1,1.6-18.1,10.3-19,11.3c-7,7.3-16.9,9.8-22.1,10.6c-1.5,0.2-2.7,0.3-3.6,0.4v7.9
			c1.1-0.1,2.7-0.2,4.8-0.5c7.7-1.2,18.4-4.4,26.6-13l0.1-0.1C75.2,17.5,81.4,11.7,87.7,10.7L87.7,10.7z"/>
	</g>
	<g>
		<g>
			
				<rect x="22" y="24.3" transform="matrix(0.9884 -0.1516 0.1516 0.9884 -4.3505 5.4856)" class="st2" width="23.6" height="13.9"/>
			<path class="st0" d="M46.7,37.6l-23.3,3.6c-0.7,0.1-1.4-0.4-1.5-1.1l-2.1-13.7c-0.1-0.7,0.4-1.4,1.1-1.5l23.3-3.6
				c0.7-0.1,1.4,0.4,1.5,1.1l2.1,13.7C47.9,36.8,47.4,37.5,46.7,37.6L46.7,37.6z M24.3,38.4L45,35.3l-1.7-11.2l-20.7,3.2L24.3,38.4
				L24.3,38.4z"/>
		</g>
	</g>
	<g>
		<path class="st2" d="M166.4,270.3c0.2,1.7-0.9,3.3-2.7,3.6l-33.2,5.1c-1.7,0.2-3.3-0.9-3.6-2.7l0,0c-0.2-1.7,0.9-3.3,2.7-3.6
			l33.2-5.1C164.6,267.4,166.2,268.6,166.4,270.3L166.4,270.3z"/>
		<path class="st0" d="M164,275.2l-33.2,5.1c-2.4,0.4-4.7-1.3-5.1-3.7c-0.4-2.4,1.3-4.7,3.7-5.1l33.2-5.1c2.4-0.4,4.7,1.3,5.1,3.7
			C168.1,272.5,166.4,274.8,164,275.2L164,275.2z M129.8,274.1c-1,0.2-1.7,1.1-1.6,2.1c0.2,1,1.1,1.7,2.1,1.6l33.2-5.1
			c1-0.2,1.7-1.1,1.6-2.1c-0.2-1-1.1-1.7-2.1-1.6L129.8,274.1L129.8,274.1z"/>
	</g>
	<g>
		<path class="st2" d="M164.9,260c0.2,1.7-0.9,3.3-2.7,3.6l-33.2,5.1c-1.7,0.2-3.3-0.9-3.6-2.7l0,0c-0.2-1.7,0.9-3.3,2.7-3.6
			l33.2-5.1C163,257.1,164.6,258.3,164.9,260L164.9,260z"/>
		<path class="st0" d="M162.5,264.9l-33.2,5.1c-2.4,0.4-4.7-1.3-5.1-3.7c-0.4-2.4,1.3-4.7,3.7-5.1l33.2-5.1c2.4-0.4,4.7,1.3,5.1,3.7
			C166.5,262.2,164.9,264.5,162.5,264.9L162.5,264.9z M128.2,263.8c-1,0.2-1.7,1.1-1.6,2.1c0.2,1,1.1,1.7,2.1,1.6l33.2-5.1
			c1-0.2,1.7-1.1,1.6-2.1s-1.1-1.7-2.1-1.6L128.2,263.8L128.2,263.8z"/>
	</g>
	<g>
		<path class="st2" d="M224.2,261.4c0.2,1.7-1.1,3.4-3,3.6l-37,5.7c-1.9,0.3-3.7-0.9-3.9-2.6l0,0c-0.2-1.7,1.1-3.4,3-3.7l37-5.7
			C222.1,258.6,223.9,259.7,224.2,261.4L224.2,261.4z"/>
		<path class="st0" d="M221.4,266.3l-37,5.7c-2.6,0.4-5.1-1.2-5.4-3.7c-0.4-2.4,1.5-4.7,4.1-5.2l37-5.7c2.6-0.4,5.1,1.2,5.4,3.7
			C225.8,263.7,224,266,221.4,266.3L221.4,266.3z M183.5,265.9c-1.2,0.2-2,1.2-1.9,2.1c0.2,1,1.2,1.6,2.4,1.5l37-5.7
			c1.2-0.2,2-1.2,1.9-2.1c-0.2-1-1.2-1.6-2.4-1.5L183.5,265.9L183.5,265.9z"/>
	</g>
	<g>
		<path class="st2" d="M222.6,251.1c0.2,1.7-1.1,3.4-3,3.6l-37,5.7c-1.9,0.3-3.7-0.9-3.9-2.6l0,0c-0.2-1.7,1.1-3.4,3-3.6l37-5.7
			C220.6,248.3,222.3,249.4,222.6,251.1L222.6,251.1z"/>
		<path class="st0" d="M219.8,256l-37,5.7c-2.6,0.4-5.1-1.2-5.4-3.7c-0.4-2.4,1.5-4.7,4.1-5.2l37-5.7c2.6-0.4,5.1,1.2,5.4,3.7
			C224.3,253.4,222.5,255.6,219.8,256L219.8,256z M181.8,255.5c-1.2,0.2-2,1.2-1.9,2.1c0.2,1,1.2,1.6,2.4,1.5l37-5.7
			c1.2-0.2,2-1.2,1.9-2.1c-0.2-1-1.2-1.6-2.4-1.5L181.8,255.5L181.8,255.5z"/>
	</g>
	<g>
		<path class="st2" d="M192.5,241.2c0.5,3.3-1.7,6.3-5,6.9l0,0c-3.3,0.5-6.3-1.7-6.9-5l-5.2-33.4c-0.5-3.3,1.7-6.3,5-6.9l0,0
			c3.3-0.5,6.3,1.7,6.9,5L192.5,241.2z"/>
		<path class="st0" d="M187.7,249.3c-4,0.6-7.7-2.1-8.4-6.1l-5.2-33.4c-0.6-4,2.1-7.7,6.1-8.4c4-0.6,7.7,2.1,8.4,6.1l5.2,33.4
			C194.4,244.9,191.7,248.7,187.7,249.3L187.7,249.3z M180.7,204c-2.6,0.4-4.3,2.8-3.9,5.3l5.2,33.4c0.4,2.6,2.8,4.3,5.3,3.9
			c2.6-0.4,4.3-2.8,3.9-5.4l-5.2-33.4C185.7,205.4,183.3,203.6,180.7,204L180.7,204z"/>
	</g>
	<g>
		
			<ellipse transform="matrix(0.9884 -0.1516 0.1516 0.9884 -43.8167 30.448)" class="st3" cx="177.8" cy="302.6" rx="6.2" ry="6.2"/>
		<path class="st0" d="M178.9,310.1c-4.1,0.6-8-2.2-8.6-6.3c-0.6-4.1,2.2-8,6.3-8.7c4.1-0.6,8,2.2,8.7,6.3
			C185.9,305.6,183,309.5,178.9,310.1L178.9,310.1z M177,297.7c-2.7,0.4-4.5,3-4.1,5.6c0.4,2.7,3,4.5,5.6,4.1c2.7-0.4,4.5-3,4.1-5.6
			C182.2,299.2,179.7,297.3,177,297.7L177,297.7z"/>
	</g>
	<g>
		
			<ellipse transform="matrix(0.9884 -0.1516 0.1516 0.9884 -34.0335 26.1286)" class="st3" cx="154.3" cy="236.3" rx="6.2" ry="6.2"/>
		<path class="st0" d="M155.5,243.8c-4.1,0.6-8-2.2-8.7-6.3c-0.6-4.1,2.2-8,6.3-8.7c4.1-0.6,8,2.2,8.7,6.3
			C162.5,239.2,159.6,243.1,155.5,243.8L155.5,243.8z M153.6,231.3c-2.7,0.4-4.5,3-4.1,5.6c0.4,2.7,3,4.5,5.6,4.1
			c2.7-0.4,4.5-3,4.1-5.6C158.8,232.8,156.3,231,153.6,231.3L153.6,231.3z"/>
	</g>
	<g>
		
			<ellipse transform="matrix(0.9884 -0.1516 0.1516 0.9884 -30.2054 25.2418)" class="st3" cx="150.4" cy="210.7" rx="6.2" ry="6.2"/>
		<path class="st0" d="M151.5,218.2c-4.1,0.6-8-2.2-8.7-6.3c-0.6-4.1,2.2-8,6.3-8.7c4.1-0.6,8,2.2,8.7,6.3
			C158.6,213.7,155.7,217.5,151.5,218.2L151.5,218.2z M149.6,205.8c-2.7,0.4-4.5,3-4.1,5.6c0.4,2.7,3,4.5,5.6,4.1
			c2.7-0.4,4.5-3,4.1-5.6C154.9,207.3,152.4,205.4,149.6,205.8L149.6,205.8z"/>
	</g>
	<g>
		
			<ellipse transform="matrix(0.9884 -0.1516 0.1516 0.9884 -26.4007 24.2249)" class="st3" cx="145.7" cy="185.2" rx="6.2" ry="6.2"/>
		<path class="st0" d="M146.8,192.8c-4.1,0.6-8-2.2-8.6-6.3c-0.6-4.1,2.2-8,6.3-8.7c4.1-0.6,8,2.2,8.7,6.3
			C153.8,188.2,151,192.1,146.8,192.8L146.8,192.8z M145,180.3c-2.7,0.4-4.5,3-4.1,5.6c0.4,2.7,3,4.5,5.6,4.1c2.7-0.4,4.5-3,4.1-5.6
			S147.6,179.9,145,180.3L145,180.3z"/>
	</g>
	<g>
		<ellipse transform="matrix(0.9884 -0.1516 0.1516 0.9884 -22.5933 23.2195)" class="st3" cx="141" cy="159.8" rx="6.2" ry="6.2"/>
		<path class="st0" d="M142.1,167.3c-4.1,0.6-8-2.2-8.7-6.3c-0.6-4.1,2.2-8,6.3-8.7c4.1-0.6,8,2.2,8.7,6.3
			C149.1,162.8,146.2,166.7,142.1,167.3L142.1,167.3z M140.2,154.9c-2.7,0.4-4.5,3-4.1,5.6c0.4,2.7,3,4.5,5.6,4.1
			c2.7-0.4,4.5-3,4.1-5.6C145.4,156.3,142.9,154.5,140.2,154.9L140.2,154.9z"/>
	</g>
	<g>
		
			<ellipse transform="matrix(0.9884 -0.1516 0.1516 0.9884 -18.7886 22.2026)" class="st3" cx="136.2" cy="134.3" rx="6.2" ry="6.2"/>
		<path class="st0" d="M137.4,141.8c-4.1,0.6-8-2.2-8.7-6.3c-0.6-4.1,2.2-8,6.3-8.7c4.1-0.6,8,2.2,8.7,6.3
			C144.3,137.3,141.5,141.2,137.4,141.8L137.4,141.8z M135.5,129.4c-2.7,0.4-4.5,3-4.1,5.6c0.4,2.7,3,4.5,5.6,4.1
			c2.7-0.4,4.5-3,4.1-5.6C140.7,130.9,138.2,129,135.5,129.4L135.5,129.4z"/>
	</g>
	<g>
		
			<ellipse transform="matrix(0.9884 -0.1516 0.1516 0.9884 -14.9811 21.1972)" class="st3" cx="131.5" cy="108.8" rx="6.2" ry="6.2"/>
		<path class="st0" d="M132.7,116.4c-4.1,0.6-8-2.2-8.7-6.3c-0.6-4.1,2.2-8,6.3-8.7c4.1-0.6,8,2.2,8.7,6.3
			C139.6,111.8,136.8,115.7,132.7,116.4L132.7,116.4z M130.7,103.9c-2.7,0.4-4.5,3-4.1,5.6c0.4,2.7,3,4.5,5.6,4.1
			c2.7-0.4,4.5-3,4.1-5.6S133.5,103.5,130.7,103.9L130.7,103.9z"/>
	</g>
	<g>
		
			<ellipse transform="matrix(0.9884 -0.1516 0.1516 0.9884 -11.1737 20.1918)" class="st3" cx="126.8" cy="83.4" rx="6.2" ry="6.2"/>
		<path class="st0" d="M127.9,90.9c-4.1,0.6-8-2.2-8.7-6.3c-0.6-4.1,2.2-8,6.3-8.7c4.1-0.6,8,2.2,8.7,6.3
			C134.9,86.4,132.1,90.3,127.9,90.9L127.9,90.9z M126.1,78.5c-2.7,0.4-4.5,3-4.1,5.6c0.4,2.7,3,4.5,5.6,4.1c2.7-0.4,4.5-3,4.1-5.6
			C131.3,79.9,128.8,78.1,126.1,78.5L126.1,78.5z"/>
	</g>
	<g>
		<ellipse transform="matrix(0.9884 -0.1516 0.1516 0.9884 -7.4012 19.0589)" class="st3" cx="121.3" cy="58.1" rx="6.2" ry="6.2"/>
		<path class="st0" d="M122.5,65.6c-4.1,0.6-8-2.2-8.7-6.3c-0.6-4.1,2.2-8,6.3-8.7c4.1-0.6,8,2.2,8.7,6.3
			C129.4,61,126.5,64.9,122.5,65.6L122.5,65.6z M120.5,53.2c-2.7,0.4-4.5,3-4.1,5.6c0.4,2.7,3,4.5,5.6,4.1c2.7-0.4,4.5-3,4.1-5.6
			C125.7,54.6,123.2,52.8,120.5,53.2L120.5,53.2z"/>
	</g>
	<g>
		<line class="st4" x1="154.3" y1="236.3" x2="141.4" y2="238.3"/>
		<path class="st0" d="M154.6,237.6l-13,2c-0.7,0.1-1.4-0.4-1.5-1.1c-0.1-0.7,0.4-1.4,1.1-1.5l13-2c0.7-0.1,1.4,0.4,1.5,1.1
			C155.7,236.8,155.3,237.4,154.6,237.6L154.6,237.6z"/>
	</g>
	<g>
		<line class="st4" x1="150.4" y1="210.7" x2="137.5" y2="212.7"/>
		<path class="st0" d="M150.6,212l-13,2c-0.7,0.1-1.4-0.4-1.5-1.1c-0.1-0.7,0.4-1.4,1.1-1.5l13-2c0.7-0.1,1.4,0.4,1.5,1.1
			C151.8,211.2,151.3,211.9,150.6,212L150.6,212z"/>
	</g>
	<g>
		<line class="st4" x1="144.9" y1="185.3" x2="131.9" y2="187.4"/>
		<path class="st0" d="M145.1,186.7l-13,2c-0.7,0.1-1.4-0.4-1.5-1.1c-0.1-0.7,0.4-1.4,1.1-1.5l13-2c0.7-0.1,1.4,0.4,1.5,1.1
			S145.8,186.6,145.1,186.7L145.1,186.7z"/>
	</g>
	<g>
		<line class="st4" x1="140.2" y1="159.9" x2="127.1" y2="161.9"/>
		<path class="st0" d="M140.4,161.2l-13,2c-0.7,0.1-1.4-0.4-1.5-1.1c-0.1-0.7,0.4-1.4,1.1-1.5l13-2c0.7-0.1,1.4,0.4,1.5,1.1
			C141.6,160.4,141.1,161.1,140.4,161.2L140.4,161.2z"/>
	</g>
	<g>
		<line class="st4" x1="135.4" y1="134.5" x2="124" y2="136.2"/>
		<path class="st0" d="M135.7,135.7l-11.4,1.7c-0.7,0.1-1.4-0.4-1.5-1.1c-0.1-0.7,0.4-1.4,1.1-1.5l11.4-1.7c0.7-0.1,1.4,0.4,1.5,1.1
			C136.8,134.9,136.4,135.6,135.7,135.7L135.7,135.7z"/>
	</g>
	<g>
		<line class="st4" x1="131.5" y1="108.9" x2="120.1" y2="110.6"/>
		<path class="st0" d="M131.8,110.2l-11.4,1.7c-0.7,0.1-1.4-0.4-1.5-1.1c-0.1-0.7,0.4-1.4,1.1-1.5l11.4-1.7c0.7-0.1,1.4,0.4,1.5,1.1
			S132.5,110,131.8,110.2L131.8,110.2z"/>
	</g>
	<g>
		<line class="st4" x1="126" y1="83.5" x2="114.7" y2="85.3"/>
		<path class="st0" d="M126.2,84.8l-11.4,1.7c-0.7,0.1-1.4-0.4-1.5-1.1c-0.1-0.7,0.4-1.4,1.1-1.5l11.4-1.7c0.7-0.1,1.4,0.4,1.5,1.1
			C127.4,84.1,126.9,84.7,126.2,84.8L126.2,84.8z"/>
	</g>
	<g>
		<line class="st4" x1="120.5" y1="58.2" x2="110.7" y2="59.7"/>
		<path class="st0" d="M120.7,59.5l-9.8,1.5c-0.7,0.1-1.4-0.4-1.5-1.1c-0.1-0.7,0.4-1.4,1.1-1.5l9.8-1.5c0.7-0.1,1.4,0.4,1.5,1.1
			C121.9,58.7,121.4,59.4,120.7,59.5L120.7,59.5z"/>
	</g>
	<g>
		
			<ellipse transform="matrix(0.9884 -0.1516 0.1516 0.9884 -29.7501 29.9718)" class="st0" cx="181.7" cy="210.1" rx="2.1" ry="2.1"/>
	</g>
	<g>
		
			<ellipse transform="matrix(0.9884 -0.1516 0.1516 0.9884 -34.2083 31.0136)" class="st0" cx="186.3" cy="239.8" rx="2.1" ry="2.1"/>
	</g>
	<g>
		
			<ellipse transform="matrix(0.9884 -0.1516 0.1516 0.9884 -30.8029 30.2191)" class="st0" cx="182.8" cy="217.1" rx="2.1" ry="2.1"/>
	</g>
	<g>
		<ellipse transform="matrix(0.9884 -0.1516 0.1516 0.9884 -32.9694 30.7173)" class="st0" cx="185" cy="231.6" rx="2.1" ry="2.1"/>
	</g>
	<g>
		
			<ellipse transform="matrix(0.9884 -0.1516 0.1516 0.9884 -31.7278 30.4327)" class="st0" cx="183.7" cy="223.3" rx="2.1" ry="2.1"/>
	</g>
	<g>
		<path class="st3" d="M137.6,216.1c0.2,1.6-0.9,3-2.4,3.3l0,0c-1.6,0.2-3-0.9-3.3-2.4l-1-6.6c-0.2-1.6,0.9-3,2.4-3.3l0,0
			c1.6-0.2,3,0.9,3.3,2.4L137.6,216.1z"/>
		<path class="st0" d="M135.4,220.6c-2.3,0.3-4.5-1.2-4.8-3.5l-1-6.6c-0.3-2.3,1.2-4.5,3.5-4.8c2.3-0.3,4.5,1.2,4.8,3.5l1,6.6
			C139.3,218.1,137.7,220.3,135.4,220.6L135.4,220.6z M133.5,208.3c-0.9,0.2-1.5,0.9-1.3,1.8l1,6.6c0.2,0.9,0.9,1.5,1.8,1.3
			c0.9-0.2,1.5-0.9,1.3-1.8l-1-6.6C135.2,208.8,134.3,208.1,133.5,208.3L133.5,208.3z"/>
	</g>
	<g>
		<path class="st3" d="M133.7,190.5c0.2,1.6-0.9,3-2.4,3.3l0,0c-1.6,0.2-3-0.9-3.3-2.4l-1-6.6c-0.2-1.6,0.9-3,2.4-3.3l0,0
			c1.6-0.2,3,0.9,3.3,2.4L133.7,190.5z"/>
		<path class="st0" d="M131.4,195.1c-2.3,0.3-4.5-1.2-4.8-3.5l-1-6.6c-0.3-2.3,1.2-4.5,3.5-4.8c2.3-0.3,4.5,1.2,4.8,3.5l1,6.6
			C135.4,192.6,133.7,194.7,131.4,195.1L131.4,195.1z M129.6,182.7c-0.9,0.2-1.5,0.9-1.3,1.8l1,6.6c0.2,0.9,0.9,1.5,1.8,1.3
			c0.9-0.2,1.5-0.9,1.3-1.8l-1-6.6C131.2,183.1,130.4,182.6,129.6,182.7L129.6,182.7z"/>
	</g>
	<g>
		<path class="st3" d="M129.7,164.9c0.2,1.6-0.9,3-2.4,3.3l0,0c-1.6,0.2-3-0.9-3.3-2.4l-1-6.6c-0.2-1.6,0.9-3,2.4-3.3l0,0
			c1.6-0.2,3,0.9,3.3,2.4L129.7,164.9z"/>
		<path class="st0" d="M127.5,169.5c-2.3,0.3-4.5-1.2-4.8-3.5l-1-6.6c-0.3-2.3,1.2-4.5,3.5-4.8c2.3-0.3,4.5,1.2,4.8,3.5l1,6.6
			C131.4,167,129.8,169.2,127.5,169.5L127.5,169.5z M125.7,157.1c-0.9,0.2-1.5,0.9-1.3,1.8l1,6.6c0.2,0.9,0.9,1.5,1.8,1.3
			c0.9-0.2,1.5-0.9,1.3-1.8l-1-6.6C127.3,157.6,126.5,157,125.7,157.1L125.7,157.1z"/>
	</g>
	<g>
		
			<ellipse transform="matrix(0.9884 -0.1516 0.1516 0.9884 -34.5991 23.7064)" class="st3" cx="138.2" cy="238.8" rx="6.2" ry="6.2"/>
		<path class="st0" d="M139.3,246.3c-4.1,0.6-8-2.2-8.7-6.3c-0.6-4.1,2.2-8,6.3-8.7c4.1-0.6,8,2.2,8.7,6.3
			C146.3,241.7,143.4,245.6,139.3,246.3L139.3,246.3z M137.4,233.8c-2.7,0.4-4.5,3-4.1,5.6c0.4,2.7,3,4.5,5.6,4.1
			c2.7-0.4,4.5-3,4.1-5.6C142.6,235.3,140.1,233.5,137.4,233.8L137.4,233.8z"/>
	</g>
	<g>
		<path class="st0" d="M171.8,304.9c-0.1,0-0.1,0-0.2,0c-4.4,0.2-13.1-1.4-15.2-9.4v-0.1c0-0.1-1.2-5.7-4.7-7.3
			c-1.6-0.7-3.4-0.5-5.5,0.5l-13.7,7c-0.5,0.2-0.9,0.2-1.4-0.1c-0.2-0.1-3-2.3-2.8-5.5c0.2-2.3,1.8-4.4,5-6.1
			c0.6-0.4,1.4-0.2,1.8,0.5s0.2,1.4-0.5,1.8c-1.6,0.9-3.5,2.3-3.7,4c-0.1,1.1,0.7,2.1,1.2,2.7l13-6.6c2.8-1.5,5.5-1.7,7.7-0.6
			c4.5,2.1,5.9,8.4,6.1,9.1c2.2,8,12.5,7.4,12.6,7.4c0.7-0.1,1.3,0.5,1.4,1.2C172.9,304.2,172.4,304.8,171.8,304.9L171.8,304.9z"/>
	</g>
	<g>
		<path class="st0" d="M220.3,175.3c-0.6,0.1-1.2-0.3-1.5-0.9l-13-42.7c-0.2-0.7,0.2-1.4,0.9-1.6c0.7-0.2,1.4,0.2,1.6,0.9l13,42.7
			c0.2,0.7-0.2,1.4-0.9,1.6C220.5,175.3,220.4,175.3,220.3,175.3L220.3,175.3z"/>
	</g>
	<g>
		<path class="st0" d="M39.5,38.7c-0.7,0.1-1.4-0.4-1.5-1.1l-2.1-13.7c-0.1-0.7,0.4-1.4,1.1-1.5s1.4,0.4,1.5,1.1l2.1,13.7
			C40.7,37.9,40.2,38.6,39.5,38.7L39.5,38.7z"/>
	</g>
	<g>
		<path class="st0" d="M31.5,39.9C30.7,40,30,39.6,30,38.9l-2.1-13.7c-0.1-0.7,0.4-1.4,1.1-1.5c0.7-0.1,1.4,0.4,1.5,1.1l2.1,13.7
			C32.7,39.2,32.2,39.9,31.5,39.9L31.5,39.9z"/>
	</g>
	<g>
		<path class="st1" d="M14,27.2c0,0,1.4,9.3-12.7,16l21.8-3.4L21,26.1L14,27.2z"/>
		<path class="st0" d="M23.4,41.2L1.5,44.6c-0.6,0.1-1.2-0.3-1.5-0.9c-0.2-0.6,0.1-1.2,0.7-1.6c13-6.2,12-14.3,12-14.6
			c-0.1-0.7,0.4-1.4,1.1-1.5l7-1.1c0.7-0.1,1.4,0.4,1.5,1.1l2.1,13.7C24.6,40.4,24.1,41.1,23.4,41.2L23.4,41.2z M7.8,41l13.9-2.1
			L20,27.7l-4.6,0.7C15.3,30.7,14.3,36,7.8,41L7.8,41z"/>
	</g>
</g>
</svg>
