<!-- Generator: Adobe Illustrator 20.1.0, SVG Export Plug-In  -->
<svg version="1.1"
     xmlns="http://www.w3.org/2000/svg" xmlns:xlink="http://www.w3.org/1999/xlink" xmlns:a="http://ns.adobe.com/AdobeSVGViewerExtensions/3.0/"
     x="0px" y="0px" width="218.2px" height="318.6px" viewBox="0 0 218.2 318.6" style="enable-background:new 0 0 218.2 318.6;"
     xml:space="preserve">
<style type="text/css">
    .st0{fill:#fbce41;}
    .st1{fill:#d2aa41;}
    .st2{fill:#fff;}
</style>
<defs>
</defs>
<g>
    <g>
        <path class="st0" d="M152.7,243.4V143c0-2,1.5-3.5,3.4-3.5c1.9,0,3.4,1.6,3.4,3.5v87c0,9.1-7.4,16.5-16.5,16.5
            c-9.1,0-16.5-7.4-16.5-16.5V105.5c0-18.5,15.1-33.6,33.6-33.6s33.6,15.1,33.6,33.6v136.2c0,28.9-23.5,52.4-52.4,52.4
            s-52.4-23.5-52.4-52.4c0,0,0-103.2-0.2-103.9C89.8,106.1,98,18.2,154.5,1.9H97.8H57.6H0.7c56.8,16.4,64.8,105.4,65.8,136.5
            c0,0.6-0.1,103.3-0.1,103.3c0,41.3,33.6,75,75,75c41.3,0,75-33.6,75-75V105.5c0-31.1-25.3-56.3-56.3-56.3
            c-31.1,0-56.3,25.3-56.3,56.3v124.6c0,21.6,17.6,39.2,39.2,39.2s39.2-17.6,39.2-39.2v-87c0-14.4-11.7-26.1-26.1-26.1
            c-14.4,0-26.1,11.7-26.1,26.1v97.1C140.5,252.5,152.6,243.4,152.7,243.4z"/>
        <path class="st1" d="M218.2,241.6c0,42.4-34.5,76.9-76.9,77c-42.4,0-76.9-34.5-76.9-76.9c0-89.1,0.1-101.4,0.1-103.2l0,0
            c-0.5-15.4-2.7-45.3-11.9-73.3C41.5,31.3,23.8,10.6,0,3.7L0.5,0l154,0l0.6,3.7c-23.7,6.8-41.3,27.3-52.4,60.9
            c-9.3,27.9-11.6,57.8-12.1,73.2l0,0c0,2.1,0.1,15.3,0.2,103.8c0,27.9,22.7,50.5,50.5,50.5s50.5-22.7,50.5-50.5V105.4
            c0-17.5-14.2-31.7-31.7-31.7s-31.7,14.2-31.7,31.7v34c1.8-13.7,13.6-24.4,27.8-24.4c15.4,0,28,12.6,28,28v87
            c0,22.7-18.5,41.1-41.1,41.1c-22.7,0-41.1-18.5-41.1-41.1V105.5c0-32,26-58.1,58.1-58.1c32,0,58.1,26,58.1,58.1V241.6L218.2,241.6
            z M105.8,105.5V230c0,20.6,16.7,37.3,37.3,37.3s37.3-16.7,37.3-37.3v-87c0-13.3-10.8-24.2-24.2-24.2c-13.3,0-24.2,10.8-24.2,24.2
            v96.4c1,1.2,2.2,2.2,3.3,3c2.3,1.5,5,2.3,7.8,2.3c1.1,0,2.1-0.1,3.1-0.3c2.1-0.5,3.8-1.4,4.7-1.9v-99.4c0-2.9,2.4-5.3,5.3-5.3
            s5.3,2.4,5.3,5.3v87c0,5.6-2.7,10.9-6.9,14.3l-0.3,0.2c-2.1,1.6-4.6,2.8-7.3,3.4c-4.9,1.2-9.7,0.4-13.8-2.4c-2-1.2-3.7-2.8-5-4.6
            l-0.1-0.2l0,0c-2.2-3.1-3.5-6.8-3.5-10.8V105.5c0-19.6,15.9-35.5,35.5-35.5c19.5,0,35.4,15.9,35.4,35.5v136.1
            c0,29.9-24.3,54.2-54.2,54.2s-54.2-24.3-54.2-54.2c0-34.7-0.1-100.3-0.2-103.7v-0.1v-0.2c0.5-15.5,2.8-45.9,12.2-74.2
            c10-30.2,25.1-50.2,45.2-59.7H10.7C30.9,13.3,46.1,33.5,56.1,64c9.3,28.4,11.6,58.8,12.1,74.3v0.2v0.1c0,2.9-0.1,68.5-0.1,103.1
            c0,40.4,32.8,73.2,73.2,73.2s73.2-32.9,73.2-73.2V105.5c0-30-24.4-54.4-54.4-54.4s-54.4,24.4-54.4,54.4H105.8z M154.5,143.1v96.1
            c2-2.6,3.2-5.7,3.2-9.1v-87c0-0.9-0.7-1.6-1.6-1.6C155.2,141.5,154.5,142.2,154.5,143.1L154.5,143.1z"/>
    </g>
    <g>
        <g>
            <path class="st2" d="M184.6,161.2c0,4.1-4.1,7.5-9,7.6h-66.8c-5,0-9-3.4-9-7.6c0-4.2,4-7.6,9-7.6h66.8
                C180.6,153.6,184.6,157,184.6,161.2L184.6,161.2z"/>
            <path class="st1" d="M186.4,161.2c0,5.2-4.8,9.4-10.8,9.4h-66.8c-5.9,0-10.8-4.2-10.8-9.4s4.8-9.4,10.8-9.4h66.8
                C181.5,151.8,186.4,156,186.4,161.2L186.4,161.2z M101.7,161.2c0,3.1,3.2,5.6,7.1,5.7h66.8c3.9,0,7.1-2.6,7.1-5.7
                c0-3.1-3.2-5.7-7.1-5.7h-66.8C104.9,155.5,101.7,158.1,101.7,161.2L101.7,161.2z"/>
        </g>
    </g>
    <g>
        <g>
            <path class="st2" d="M184.6,186.5c0,4.2-4.1,7.6-9,7.6h-66.8c-5,0-9-3.4-9-7.6c0-4.2,4-7.6,9-7.6h66.8
                C180.6,178.9,184.6,182.3,184.6,186.5L184.6,186.5z"/>
            <path class="st1" d="M186.4,186.5c0,5.2-4.8,9.5-10.8,9.4h-66.8c-5.9,0-10.8-4.2-10.8-9.4s4.8-9.4,10.8-9.4h66.8
                C181.5,177.1,186.4,181.3,186.4,186.5L186.4,186.5z M101.7,186.5c0,3.2,3.2,5.7,7.1,5.7h66.8c3.9,0,7.1-2.6,7.1-5.7
                c0-3.1-3.2-5.7-7.1-5.7h-66.8C104.9,180.8,101.7,183.4,101.7,186.5L101.7,186.5z"/>
        </g>
    </g>
    <g>
        <g>
            <path class="st2" d="M184.6,211.9c0,4.2-4.1,7.6-9,7.6h-66.8c-5,0-9-3.4-9-7.6c0-4.2,4-7.6,9-7.6h66.8
                C180.6,204.3,184.6,207.7,184.6,211.9L184.6,211.9z"/>
            <path class="st1" d="M186.4,211.9c0,5.2-4.8,9.4-10.8,9.4h-66.8c-5.9,0-10.8-4.2-10.8-9.4s4.8-9.4,10.8-9.4h66.8
                C181.5,202.5,186.4,206.7,186.4,211.9L186.4,211.9z M101.7,211.9c0,3.1,3.2,5.7,7.1,5.7h66.8c3.9,0,7.1-2.6,7.1-5.7
                c0-3.1-3.2-5.7-7.1-5.7h-66.8C104.9,206.2,101.7,208.8,101.7,211.9L101.7,211.9z"/>
        </g>
    </g>
    <g>
        <g>
            <path class="st0" d="M120.9,133c0,2.6-1.7,5-4.4,5.7c-3,0.6-6-1.2-6.7-4.3c-0.1-0.4-8.9-30.9-84-22.4c-3.1,0.3-5.9-1.9-6.3-5
                c-0.3-3.1,1.9-5.9,5-6.3c86.3-9.8,95.9,29.4,96.3,31.1C120.9,132.2,120.9,132.6,120.9,133L120.9,133z"/>
            <path class="st1" d="M122.8,133c0,3.5-2.5,6.6-6,7.3c-4,0.9-8-1.6-8.9-5.6c-0.4-1-10.2-29.2-82-21c-4.1,0.5-7.8-2.5-8.3-6.6
                c-0.5-4.1,2.5-7.8,6.6-8.3c88-10,98,30.9,98.4,32.6C122.7,131.9,122.8,132.5,122.8,133L122.8,133z M21.3,106.3
                c0,0.1,0.1,0.3,0.1,0.4c0.2,2,2.1,3.5,4.2,3.3c31.6-3.6,55.6-0.9,71.3,8.1c12.3,7,14.7,15.5,14.7,15.7c0.4,2,2.4,3.3,4.5,2.8
                c1.7-0.3,3-1.9,3-3.7c0-0.2,0-0.5-0.1-0.8c-0.4-1.6-9.6-39.2-94.3-29.6C22.7,102.7,21.3,104.4,21.3,106.3L21.3,106.3z"/>
        </g>
    </g>
    <g>
        <g>
            <path class="st2" d="M57.1,104.8c0,5.1-4.1,9.3-9.3,9.3c-6.7,0.1-14,0.6-21.6,1.5c-5.2,0.6-9.9-3.1-10.5-8.3
                c-0.6-5.2,3.1-9.8,8.3-10.4c8.3-1,16.2-1.5,23.5-1.6c5.2-0.1,9.5,4.1,9.6,9.3C57.1,104.7,57.1,104.7,57.1,104.8L57.1,104.8z"/>
            <path class="st1" d="M59,104.8c0,6.1-5,11.2-11.1,11.2c-6.6,0.2-13.8,0.6-21.4,1.5c-6.2,0.7-11.8-3.8-12.5-10
                c-0.1-0.5-0.1-0.9-0.1-1.3c0-5.7,4.3-10.5,10-11.2c8.3-0.9,16.2-1.5,23.6-1.6c3.1,0,5.9,1.1,8.1,3.2c2.1,2.1,3.4,5,3.4,8V104.8
                L59,104.8z M17.6,106.3c0,0.3,0,0.6,0,0.8c0.5,4.2,4.3,7.2,8.4,6.7c7.7-0.9,15-1.4,21.8-1.5c4.2-0.1,7.5-3.5,7.5-7.6v-0.1
                c0-2-0.8-3.9-2.3-5.3s-3.4-2.1-5.4-2.1c-7.3,0.1-15.1,0.7-23.3,1.6C20.5,99.2,17.6,102.4,17.6,106.3L17.6,106.3z"/>
        </g>
    </g>
</g>
</svg>
