<?xml version="1.0" encoding="utf-8"?>
<!-- Generator: Adobe Illustrator 20.1.0, SVG Export Plug-In . SVG Version: 6.00 Build 0)  -->
<svg version="1.1" id="Layer_1" xmlns="http://www.w3.org/2000/svg" xmlns:xlink="http://www.w3.org/1999/xlink" x="0px" y="0px"
	 viewBox="0 0 200 100" style="enable-background:new 0 0 200 100;" xml:space="preserve">
<style type="text/css">
	.st0{opacity:0.3;}
	.st1{fill:#231F20;}
	.st2{fill:#4D61C5;}
	.st3{fill:#262729;}
	.st4{fill:#58595B;}
	.st5{fill:#FFFFFF;}
</style>
<g class="st0">
	<circle class="st1" cx="69.8" cy="50" r="2.6"/>
	<circle class="st1" cx="57.5" cy="50" r="2.6"/>
	<circle class="st1" cx="45.3" cy="50" r="2.6"/>
	<circle class="st1" cx="131" cy="50" r="2.6"/>
	<circle class="st1" cx="143.2" cy="50" r="2.6"/>
</g>
<g class="st0">
	<polygon class="st1" points="151.6,57.6 150.2,56.2 157.5,49.4 150.2,42.7 151.6,41.2 160.4,49.4 	"/>
</g>
<circle class="st2" cx="19.8" cy="50" r="12.7"/>
<circle class="st3" cx="19.8" cy="50" r="2.2"/>
<g>
	<g>
		<g>
			<path class="st4" d="M100,19.6c-11.2,0-20.3,9.1-20.3,20.2v20.3c0,11.2,9.1,20.2,20.3,20.2s20.3-9.1,20.3-20.2V39.9
				C120.3,28.7,111.2,19.6,100,19.6z"/>
			<path class="st5" d="M118,60.1c0,9.9-8.1,18-18,18s-18-8.1-18-18V39.9c0-9.9,8.1-18,18-18s18,8.1,18,18V60.1z"/>
			<path class="st4" d="M100,26.4c-0.6,0-1.1,0.5-1.1,1.1v10.2c0,0.6,0.5,1.1,1.1,1.1s1.1-0.5,1.1-1.1V27.5
				C101.1,26.9,100.6,26.4,100,26.4z"/>
		</g>
	</g>
</g>
</svg>
